<svg xmlns="http://www.w3.org/2000/svg" width="54" height="54" viewBox="2 2 22 22" fill="none"
    stroke="#000000" stroke-width="2" stroke-linecap="round" stroke-linejoin="round">
    <!-- Hourglass shape representing waiting -->
    <path d="M6.5 4h11" />
    <path d="M6.5 20h11" />
    <path d="M7 4v3a4 4 0 0 0 2 3.464L10.5 12L9 13.536A4 4 0 0 0 7 17v3" />
    <path d="M17 4v3a4 4 0 0 1 -2 3.464L13.5 12L15 13.536A4 4 0 0 1 17 17v3" />
    <!-- Multiple incoming arrows representing webhook calls -->
    <path d="M20 7l2 2l-2 2" />
    <path d="M22 9h-4" />
    <path d="M20 14l2 2l-2 2" />
    <path d="M22 16h-4" />
</svg>
